<svg xmlns="http://www.w3.org/2000/svg" width="0" height="0">
  <symbol id="home" xmlns="http://www.w3.org/2000/svg" x="0px" y="0px" enable-background="new 0 0 100 100" viewBox="0 0 100 100">
      <path d="M75.5,42.467l9.177,7.484c0.375,0.314,0.956,0.468,1.409,0.468c0.57,0,1.201-0.243,1.596-0.715
		c0.71-0.847,0.631-2.108-0.216-2.817l-35.121-29.46c-0.372-0.312-0.815-0.456-1.266-0.459c-0.032-0.003-0.062,0.001-0.094-0.001
		c-0.032,0.002-0.063-0.002-0.095,0.001c-0.451,0.003-0.901,0.147-1.273,0.459L14.48,46.887c-0.846,0.709-0.957,1.971-0.248,2.817
		c0.396,0.472,0.963,0.715,1.534,0.715c0.454,0,0.659-0.153,1.034-0.468l6.699-5.826v31.408c0,4.369,4.551,7.967,8.999,7.967h36
		c4.206,0,7.001-3.286,7.001-7.967V42.467z M57.5,79.5h-15V57.692c0-1.067,2.376-2.192,4.061-2.192h9.579
		c1.478,0,1.36,0.753,1.36,2.192V79.5z M71.5,75.533c0,2.137-0.81,3.967-3.001,3.967H61.5V57.692c0-3.639-1.691-6.192-5.36-6.192
		h-9.579c-3.665,0-8.061,2.418-8.061,6.192V79.5h-6.001c-2.229,0-4.999-1.813-4.999-3.967V40.881c0-0.034,0.242-0.067,0.24-0.102
		l23.125-19.282l21.342,18.051c-0.319,0.354-0.706,0.818-0.706,1.333V75.533z"></path>
  </symbol>
  <symbol id="gallery" x="0px" y="0px" enable-background="new 0 0 100 100" viewBox="0 0 100 100">
      <path d="M83,26.5c0-0.829-0.672-1.5-1.5-1.5h-62c-0.829,0-1.5,0.671-1.5,1.5v35c0,0.828,0.671,1.5,1.5,1.5h62
		c0.828,0,1.5-0.672,1.5-1.5V26.5z M21,28h59v32H21V28z"></path>
      <path d="M16,71h26.762c-0.321,3-1.5,8-4.055,10H28c-1.104,0-2,0.896-2,2s0.896,2,2,2h46c1.104,0,2-0.896,2-2s-0.896-2-2-2h-9.729
		c-2.556-2-3.734-7-4.056-10H85c3.309,0,6-2.811,6-6.119v-42C91,19.572,88.309,17,85,17H16c-3.309,0-6,2.572-6,5.881v42
		C10,68.189,12.691,71,16,71z M59.045,81H43.932c2.102-4,2.709-9,2.853-10h9.407C56.336,72,56.943,77,59.045,81z M87,65
		c0,1.104-0.896,2-2,2H16c-1.104,0-2-0.896-2-2V23c0-1.104,0.896-2,2-2h69c1.104,0,2,0.896,2,2V65z"></path>
  </symbol>
  <symbol id="down"  x="0px" y="0px" enable-background="new 0 0 100 100" viewBox="0 0 100 100">
      <path d="M33.027,51.458c1.361,1.862,2.769,3.787,4.091,5.705c1.238,1.798,2.503,3.581,3.767,5.362l1.308,1.845
		c2.081,3.052,3.878,5.688,7.682,5.688c3.949,0,6.032-3.186,7.663-5.684c0.261-0.368,0.519-0.742,0.777-1.116
		c0.313-0.454,0.627-0.908,0.945-1.352l0.089-0.123c2.649-3.687,5.39-7.499,7.996-11.297c0.418-0.608,0.845-1.219,1.273-1.831
		c0.916-1.309,1.864-2.662,2.739-4.024c0.222-0.345,0.507-0.711,0.805-1.098c1.34-1.74,3.583-4.843,1.785-8.008
		c-1.005-1.77-3.175-4.025-5.983-4.025H31.782c-3.215,0-6.302,2.903-6.605,5.995c-0.248,2.523,1.27,4.686,2.489,6.348
		c0.227,0.308,0.445,0.652,0.638,0.937C29.829,47.034,31.455,49.307,33.027,51.458z M31.782,35.5h36.182
		c0.842,0,1.919,0.969,2.505,2.001c0.416,0.73-0.119,1.735-1.476,3.497c-0.363,0.472-0.706,0.964-1.001,1.423
		c-0.832,1.295-1.757,2.639-2.65,3.917c-0.436,0.622-0.869,1.253-1.295,1.873c-2.582,3.763-5.31,7.563-7.947,11.233l-0.088,0.126
		c-0.333,0.463-0.661,0.939-0.989,1.414c-0.249,0.361-0.498,0.723-0.791,1.139c-1.778,2.721-2.83,3.936-4.357,3.936
		c-1.491,0-2.23-0.792-4.396-3.969l-1.33-1.878c-1.253-1.767-2.508-3.535-3.736-5.317c-1.353-1.964-2.777-3.912-4.154-5.796
		c-1.552-2.123-3.155-4.317-4.641-6.512c-0.22-0.324-0.468-0.663-0.726-1.015c-0.858-1.17-1.831-2.686-1.733-3.685
		C29.258,36.86,30.656,35.5,31.782,35.5z"></path>
  </symbol>
  <symbol id="mleft" x="0px" y="0px" enable-background="new 0 0 100 100" viewBox="0 0 100 100">
      <path d="M74.656,56.818c3.895,3.729,5.788,8.795,5.788,15.491c0,1.104,0.896,2,2,2s2-0.885,2-1.989
		c0-7.736-2.362-13.91-7.022-18.369C66.646,43.639,46.325,44.551,30,45.269c-2.28,0.101-4.461,0.211-6.499,0.28L38.428,30.62
		c0.781-0.781,0.781-2.047,0-2.828s-2.048-0.781-2.828,0L17.479,45.915c-0.375,0.375-0.586,0.884-0.586,1.414
		s0.211,1.039,0.586,1.414l18.123,18.12c0.391,0.391,0.902,0.586,1.414,0.586s1.024-0.195,1.415-0.586
		c0.781-0.781,0.781-2.048,0-2.828L24.142,49.75c1.915-0.11,3.932-0.261,6.033-0.354C44.919,48.748,65.114,47.688,74.656,56.818z"></path>
  </symbol>
</svg>